<svg width="483" height="396" viewBox="0 0 483 396" fill="none" xmlns="http://www.w3.org/2000/svg">
<g clip-path="url(#clip0)">
<path d="M421.294 314.941C421.294 299.873 417.064 285.107 409.085 272.324C401.106 259.542 389.699 249.256 376.162 242.637C362.625 236.018 347.502 233.333 332.514 234.886C317.526 236.439 303.275 242.168 291.382 251.422C281.26 239.71 268.199 230.907 253.544 225.921C238.889 220.934 223.17 219.944 208.005 223.052C192.84 226.159 178.778 233.253 167.266 243.602C155.754 253.952 147.208 267.182 142.509 281.932C134.647 274.943 125.204 269.968 114.994 267.435C104.783 264.902 94.1104 264.887 83.8929 267.392C73.6755 269.897 64.2194 274.846 56.3377 281.813C48.4561 288.781 42.3849 297.559 38.6462 307.392C34.9076 317.225 33.6134 327.82 34.8749 338.264C36.1364 348.708 39.916 358.689 45.8885 367.349C51.861 376.009 59.8476 383.089 69.1617 387.98C78.4757 392.87 88.8382 395.425 99.3582 395.425C100.368 395.425 101.371 395.399 102.369 395.353C103.4 395.398 104.435 395.425 105.477 395.425H349.282C366.825 395.424 383.739 388.893 396.729 377.103C409.719 365.314 417.855 349.11 419.553 331.65C420.712 326.156 421.296 320.556 421.294 314.941V314.941Z" fill="#C0B8F5"/>
<path d="M105.487 253.074C133.741 253.074 156.646 230.169 156.646 201.914C156.646 173.659 133.741 150.754 105.487 150.754C77.2319 150.754 54.3268 173.659 54.3268 201.914C54.3268 230.169 77.2319 253.074 105.487 253.074Z" fill="#293F2F" fill-opacity="0.53"/>
<path d="M105.654 90.3657H105.654C98.7286 90.3657 93.1147 95.9796 93.1147 102.905V128.384C93.1147 135.31 98.7286 140.924 105.654 140.924H105.654C112.579 140.924 118.193 135.31 118.193 128.384V102.905C118.193 95.9796 112.579 90.3657 105.654 90.3657Z" fill="#6C63FF"/>
<path d="M202.174 146.285L202.174 146.285C198.711 140.287 191.043 138.232 185.045 141.695L162.979 154.435C156.982 157.897 154.927 165.566 158.39 171.564L158.39 171.564C161.852 177.561 169.521 179.616 175.518 176.153L197.584 163.413C203.582 159.951 205.637 152.282 202.174 146.285Z" fill="#6C63FF"/>
<path d="M8.79929 257.543L8.7993 257.543C12.2619 263.541 19.9307 265.596 25.9281 262.133L47.9941 249.393C53.9914 245.931 56.0463 238.262 52.5837 232.264C49.1211 226.267 41.4523 224.212 35.4549 227.675L13.3889 240.415C7.39156 243.877 5.3367 251.546 8.79929 257.543Z" fill="#6C63FF"/>
<path d="M8.96649 145.995L8.96647 145.995C5.50388 151.992 7.55874 159.661 13.5561 163.124L35.6221 175.864C41.6195 179.326 49.2883 177.271 52.7509 171.274L52.7509 171.274C56.2135 165.277 54.1586 157.608 48.1613 154.145L26.0953 141.405C20.0979 137.943 12.4291 139.998 8.96649 145.995Z" fill="#6C63FF"/>
<path d="M381.719 290.551L372.909 308.51C372.909 308.51 356.984 306.477 363.422 327.484C363.422 327.484 361.727 343.41 358.339 346.798C354.951 350.187 361.05 372.55 373.248 366.112C380.109 362.49 380.538 358.333 379.6 355.389C378.144 350.998 377.86 346.303 378.776 341.768C380 336.036 382.205 328.705 386.124 322.402C393.917 309.865 401.371 297.667 401.371 297.667L381.719 290.551Z" fill="#A0616A"/>
<path d="M359.694 180.091C359.694 180.091 340.381 175.347 333.943 178.736C327.505 182.124 308.53 182.463 308.53 182.463C308.53 182.463 292.605 208.214 296.332 221.429C300.059 234.644 315.646 242.776 315.646 242.776L368.165 243.114L376.636 208.553C376.636 208.553 372.57 184.835 369.182 183.479C365.793 182.124 359.694 180.091 359.694 180.091Z" fill="#3F3D56"/>
<path d="M342.414 90.6385C358.32 90.6385 371.215 77.7438 371.215 61.8375C371.215 45.9311 358.32 33.0364 342.414 33.0364C326.507 33.0364 313.613 45.9311 313.613 61.8375C313.613 77.7438 326.507 90.6385 342.414 90.6385Z" fill="#2F2E41"/>
<path d="M324.455 86.5725C324.455 86.5725 327.844 100.804 322.761 102.498C317.679 104.192 313.274 110.969 313.274 110.969L320.728 123.506L346.141 129.943L353.934 122.489L359.694 106.564L353.934 102.498C353.934 102.498 348.513 104.192 348.174 98.7706C348.012 94.7015 348.125 90.6262 348.513 86.5725L324.455 86.5725Z" fill="#A0616A"/>
<path opacity="0.1" d="M324.455 86.5725C324.455 86.5725 327.844 100.804 322.761 102.498C317.679 104.192 313.274 110.969 313.274 110.969L320.728 123.506L346.141 129.943L353.934 122.489L359.694 106.564L353.934 102.498C353.934 102.498 348.513 104.192 348.174 98.7706C348.012 94.7015 348.125 90.6262 348.513 86.5725L324.455 86.5725Z" fill="black"/>
<path d="M337.501 95.8905C348.916 95.8905 358.17 86.6366 358.17 75.2215C358.17 63.8063 348.916 54.5525 337.501 54.5525C326.085 54.5525 316.832 63.8063 316.832 75.2215C316.832 86.6366 326.085 95.8905 337.501 95.8905Z" fill="#A0616A"/>
<path d="M336.315 122.489L316.662 104.531C316.662 104.531 307.852 111.985 306.836 111.985C305.819 111.985 292.605 116.051 292.266 117.745C291.927 119.439 303.786 137.398 303.786 137.398C303.786 137.398 301.076 150.612 303.786 156.373C306.497 162.133 304.464 186.868 304.464 186.868C304.464 186.868 322.422 180.43 331.91 183.479C341.397 186.529 369.182 183.479 369.182 183.479C369.182 183.479 373.248 157.389 371.554 154.001C369.859 150.612 369.521 131.299 369.521 131.299L384.09 115.374C384.09 115.374 381.041 103.175 369.521 102.498C358 101.82 350.885 101.142 350.885 101.142L336.315 122.489Z" fill="#2F2E41"/>
<path d="M313.274 205.843C313.274 205.843 275.324 188.562 260.077 180.43C244.829 172.298 221.449 178.736 228.904 197.033C236.358 215.33 278.035 233.288 278.035 233.288C278.035 233.288 291.588 243.453 299.72 243.114C307.853 242.776 319.542 242.945 319.542 242.945L313.274 205.843Z" fill="#3F3D56"/>
<path d="M371.892 208.214C371.892 208.214 439.998 208.892 435.593 234.305C431.189 259.717 405.098 302.072 400.355 303.088C395.611 304.105 378.33 296.65 378.33 294.279C378.33 291.907 394.933 248.197 394.933 248.197L354.273 235.66L371.892 208.214Z" fill="#3F3D56"/>
<path d="M384.768 132.315C384.768 132.315 388.834 171.281 386.801 177.38C384.768 183.479 377.653 200.082 368.504 208.214C359.355 216.346 346.48 257.346 339.364 237.693C332.249 218.041 350.885 207.198 350.885 207.198L369.565 180.915L369.741 138.143L384.768 132.315Z" fill="#A0616A"/>
<path d="M308.53 213.975C308.53 213.975 342.075 225.834 345.802 224.14C349.529 222.446 357.661 228.545 357.661 228.545C361.419 227.74 365.299 227.685 369.079 228.383C372.858 229.081 376.463 230.517 379.686 232.611C390.528 239.726 392.9 247.858 390.528 248.197C388.157 248.536 379.686 244.809 379.686 244.809C379.686 244.809 366.81 242.098 359.017 244.47C351.223 246.842 341.067 241.841 341.067 241.841L299.72 232.611L308.53 213.975Z" fill="#A0616A"/>
<path opacity="0.1" d="M308.53 213.975C308.53 213.975 342.075 225.834 345.802 224.14C349.529 222.446 357.661 228.545 357.661 228.545C361.419 227.74 365.299 227.685 369.079 228.383C372.858 229.081 376.463 230.517 379.686 232.611C390.528 239.726 392.9 247.858 390.528 248.197C388.157 248.536 379.686 244.809 379.686 244.809C379.686 244.809 366.81 242.098 359.017 244.47C351.223 246.842 341.067 241.841 341.067 241.841L299.72 232.611L308.53 213.975Z" fill="black"/>
<path d="M292.266 146.885C292.266 146.885 292.605 188.901 297.687 193.983C302.77 199.066 308.191 205.843 313.274 208.892C318.356 211.942 321.067 219.057 321.067 219.057C321.067 219.057 345.463 254.635 345.802 238.371C346.141 222.107 333.265 209.231 333.265 209.231L330.745 206.831C325.232 201.643 320.247 195.921 315.864 189.749C314.863 188.277 313.647 186.963 312.257 185.851C307.853 182.463 306.836 145.191 306.836 145.191L292.266 146.885Z" fill="#A0616A"/>
<path d="M376.975 111.307L384.09 115.374C384.09 115.374 386.801 133.332 388.156 135.704C389.512 138.075 371.554 144.175 368.843 142.48C366.132 140.786 364.777 124.183 364.777 124.183L376.975 111.307Z" fill="#2F2E41"/>
<path d="M296.671 117.406H292.266C292.266 117.406 287.522 122.489 287.861 133.332C288.2 144.174 283.795 150.951 286.506 151.968C289.217 152.984 302.737 147.604 302.584 149.108C302.431 150.612 309.547 147.902 309.547 147.902L304.803 129.943L296.671 117.406Z" fill="#2F2E41"/>
<path opacity="0.1" d="M262.619 186.868C262.619 186.868 283.287 195.677 289.048 197.033C294.808 198.388 313.425 214.248 313.425 214.248L300.717 233.545C300.717 233.545 287.692 231.933 280.577 230.578C273.461 229.222 231.107 201.099 238.222 196.355C245.338 191.611 262.619 186.868 262.619 186.868Z" fill="black"/>
<path d="M258.382 186.868C258.382 186.868 279.051 195.677 284.812 197.033C290.572 198.388 313.274 213.975 313.274 213.975L302.092 235.66C302.092 235.66 283.456 231.933 276.341 230.578C269.225 229.222 226.871 201.099 233.986 196.355C241.102 191.611 258.382 186.868 258.382 186.868Z" fill="#3F3D56"/>
<path d="M348.004 71.1554C363.911 71.1554 376.806 58.2608 376.806 42.3544C376.806 26.4481 363.911 13.5534 348.004 13.5534C332.098 13.5534 319.203 26.4481 319.203 42.3544C319.203 58.2608 332.098 71.1554 348.004 71.1554Z" fill="#2F2E41"/>
<path d="M356.137 27.1068C363.622 27.1068 369.69 21.0388 369.69 13.5534C369.69 6.06807 363.622 0 356.137 0C348.651 0 342.583 6.06807 342.583 13.5534C342.583 21.0388 348.651 27.1068 356.137 27.1068Z" fill="#2F2E41"/>
</g>
<defs>
<clipPath id="clip0">
<rect width="482.335" height="395.628" fill="white"/>
</clipPath>
</defs>
</svg>
